<?xml version="1.0" standalone="no"?>
<!DOCTYPE svg PUBLIC "-//W3C//DTD SVG 20010904//EN"
 "http://www.w3.org/TR/2001/REC-SVG-20010904/DTD/svg10.dtd">
<svg version="1.0" xmlns="http://www.w3.org/2000/svg"
 width="225.000000pt" height="225.000000pt" viewBox="0 0 225.000000 225.000000"
 preserveAspectRatio="xMidYMid meet">

<g transform="translate(0.000000,225.000000) scale(0.100000,-0.100000)"
fill="#000000" stroke="none">
<path d="M103 1697 c-59 -59 -103 -111 -103 -122 0 -27 1098 -1125 1125 -1125
27 0 1125 1098 1125 1125 0 25 -208 224 -235 225 -13 0 -168 -148 -455 -435
l-435 -435 -435 435 c-337 337 -440 435 -459 435 -18 0 -53 -28 -128 -103z
m567 -442 c283 -283 442 -435 455 -435 13 0 172 153 458 438 l437 437 55 -60
c30 -33 54 -62 55 -65 0 -3 -226 -231 -503 -508 l-502 -502 -504 504 -504 504
54 61 c30 33 56 61 59 61 3 0 201 -196 440 -435z"/>
</g>
</svg>
